<svg width="443" height="498" viewBox="0 0 443 498" fill="none" xmlns="http://www.w3.org/2000/svg">
<g filter="url(#filter0_i_30:7)">
<rect x="56" width="333" height="265" rx="75" fill="url(#paint0_linear_30:7)"/>
</g>
<rect x="66" y="10" width="313" height="245" rx="65" stroke="#000000" stroke-width="20"/>
<circle cx="162" cy="135" r="20" fill="#000000"/>
<circle cx="283" cy="135" r="20" fill="#000000"/>
<mask id="mask0_30:7" style="mask-type:alpha" maskUnits="userSpaceOnUse" x="162" y="101" width="121" height="121">
<circle cx="222.5" cy="161.5" r="60.5" fill="#000000"/>
</mask>
<g mask="url(#mask0_30:7)">
<rect x="87" y="177" width="263" height="89" fill="#000000"/>
</g>
<path d="M226.112 306.225C224.144 308.283 220.856 308.283 218.888 306.225L178.199 263.707C175.155 260.527 177.409 255.25 181.811 255.25L263.189 255.25C267.591 255.25 269.845 260.527 266.801 263.707L226.112 306.225Z" fill="white" stroke="#000000" stroke-width="20"/>
<path d="M222.5 296L170.105 241.25L274.895 241.25L222.5 296Z" fill="#8CFEEA"/>
<mask id="path-9-outside-1_30:7" maskUnits="userSpaceOnUse" x="0.606018" y="328.19" width="442" height="170" fill="black">
<rect fill="white" x="0.606018" y="328.19" width="442" height="170"/>
<path d="M15.606 380.24C15.606 373.22 17.426 367.933 21.066 364.38C24.706 360.827 29.0394 359.05 34.066 359.05C39.1794 359.05 46.1127 359.917 54.866 361.65C63.6194 363.383 70.206 364.293 74.626 364.38C81.9927 362.993 89.0127 361.303 95.686 359.31C96.3794 361.563 96.726 364.38 96.726 367.76C96.726 374.78 94.6894 380.067 90.616 383.62C86.6294 387.173 81.516 388.95 75.276 388.95C73.716 388.95 71.636 388.863 69.036 388.69C64.2694 413.737 61.886 427.733 61.886 430.68C61.886 439.087 63.186 445.37 65.786 449.53C60.586 453.43 55.1694 455.38 49.536 455.38C43.9027 455.38 39.8727 453.777 37.446 450.57C35.0194 447.277 33.806 442.423 33.806 436.01C33.806 429.51 36.3194 412.263 41.346 384.27C31.5527 385.57 23.3194 387.043 16.646 388.69C15.9527 386.523 15.606 383.707 15.606 380.24Z"/>
<path d="M140.37 353.46C140.37 356.753 138.637 359.613 135.17 362.04C131.704 364.38 127.76 365.55 123.34 365.55C118.92 365.55 115.41 364.683 112.81 362.95C110.297 361.217 109.04 358.877 109.04 355.93C109.04 351.943 110.904 348.823 114.63 346.57C118.357 344.317 122.3 343.19 126.46 343.19C130.62 343.19 133.957 344.057 136.47 345.79C139.07 347.523 140.37 350.08 140.37 353.46ZM115.02 455.25C109.647 455.25 105.747 453.907 103.32 451.22C100.894 448.533 99.6805 444.46 99.6805 439C99.6805 433.453 102.454 418.677 108 394.67L100.72 383.75C111.554 377.25 120.09 374 126.33 374C129.884 374 132.397 374.78 133.87 376.34C135.344 377.813 136.08 380.24 136.08 383.62C136.08 384.92 134.477 392.547 131.27 406.5C128.064 420.453 126.46 430.42 126.46 436.4C126.46 442.38 127.804 446.54 130.49 448.88C125.637 453.127 120.48 455.25 115.02 455.25Z"/>
<path d="M163.211 477.87C157.838 477.87 154.068 476.527 151.901 473.84C149.821 471.24 148.781 467.427 148.781 462.4C148.781 457.46 149.821 447.45 151.901 432.37C154.068 417.29 156.148 404.42 158.141 393.76L150.861 383.36C156.234 380.24 160.871 377.9 164.771 376.34C168.671 374.693 172.528 373.87 176.341 373.87C182.581 373.87 185.701 377.987 185.701 386.22C185.701 387.347 185.528 389.643 185.181 393.11L186.481 393.76C188.994 387.52 192.634 382.667 197.401 379.2C202.168 375.647 207.758 373.87 214.171 373.87C220.671 373.87 225.828 376.817 229.641 382.71C233.454 388.517 235.361 395.753 235.361 404.42C235.361 416.033 231.288 426.607 223.141 436.14C219.154 440.82 213.824 444.633 207.151 447.58C200.478 450.44 193.024 451.87 184.791 451.87C182.278 451.87 178.984 451.653 174.911 451.22C174.651 454.253 174.521 457.07 174.521 459.67C174.521 465.217 175.864 469.16 178.551 471.5C173.698 475.747 168.584 477.87 163.211 477.87ZM180.241 424.05L177.251 439.13C187.738 438.87 196.101 435.447 202.341 428.86C208.668 422.187 211.831 414.907 211.831 407.02C211.831 402.947 211.008 399.697 209.361 397.27C207.801 394.757 205.504 393.5 202.471 393.5C191.724 393.5 184.314 403.683 180.241 424.05Z"/>
<path d="M262.742 477.87C257.369 477.87 253.599 476.527 251.432 473.84C249.352 471.24 248.312 467.427 248.312 462.4C248.312 457.46 249.352 447.45 251.432 432.37C253.599 417.29 255.679 404.42 257.672 393.76L250.392 383.36C255.765 380.24 260.402 377.9 264.302 376.34C268.202 374.693 272.059 373.87 275.872 373.87C282.112 373.87 285.232 377.987 285.232 386.22C285.232 387.347 285.059 389.643 284.712 393.11L286.012 393.76C288.525 387.52 292.165 382.667 296.932 379.2C301.699 375.647 307.289 373.87 313.702 373.87C320.202 373.87 325.359 376.817 329.172 382.71C332.985 388.517 334.892 395.753 334.892 404.42C334.892 416.033 330.819 426.607 322.672 436.14C318.685 440.82 313.355 444.633 306.682 447.58C300.009 450.44 292.555 451.87 284.322 451.87C281.809 451.87 278.515 451.653 274.442 451.22C274.182 454.253 274.052 457.07 274.052 459.67C274.052 465.217 275.395 469.16 278.082 471.5C273.229 475.747 268.115 477.87 262.742 477.87ZM279.772 424.05L276.782 439.13C287.269 438.87 295.632 435.447 301.872 428.86C308.199 422.187 311.362 414.907 311.362 407.02C311.362 402.947 310.539 399.697 308.892 397.27C307.332 394.757 305.035 393.5 302.002 393.5C291.255 393.5 283.845 403.683 279.772 424.05Z"/>
<path d="M383.853 449.4C379.78 450.873 375.707 451.61 371.633 451.61C367.56 451.61 364.137 450.397 361.363 447.97C358.59 445.543 356.987 442.25 356.553 438.09C356.12 433.93 355.73 427.907 355.383 420.02C355.037 412.047 354.69 406.413 354.343 403.12C353.217 392.113 349.75 384.27 343.943 379.59C348.017 375.863 353.13 374 359.283 374C362.663 374 365.61 374.91 368.123 376.73C370.637 378.463 372.63 380.803 374.103 383.75C375.663 386.61 376.92 390.337 377.873 394.93C379.347 402.557 380.083 412.87 380.083 425.87C380.083 429.077 379.953 432.847 379.693 437.18H387.233C396.16 413.087 400.623 396.663 400.623 387.91C400.623 384.963 399.973 382.19 398.673 379.59C404.74 375.863 410.027 374 414.533 374C422.94 374 427.143 378.853 427.143 388.56C427.143 396.273 423.59 409.837 416.483 429.25C415.183 432.803 414.447 434.883 414.273 435.49C403.267 466.863 387.623 482.55 367.343 482.55C361.19 482.55 356.12 481.207 352.133 478.52C348.147 475.92 346.153 472.453 346.153 468.12C346.153 463.873 347.757 459.41 350.963 454.73C355.123 460.623 360.323 463.57 366.563 463.57C370.117 463.57 373.41 462.4 376.443 460.06C379.563 457.72 382.033 454.167 383.853 449.4Z"/>
</mask>
<path d="M15.606 380.24C15.606 373.22 17.426 367.933 21.066 364.38C24.706 360.827 29.0394 359.05 34.066 359.05C39.1794 359.05 46.1127 359.917 54.866 361.65C63.6194 363.383 70.206 364.293 74.626 364.38C81.9927 362.993 89.0127 361.303 95.686 359.31C96.3794 361.563 96.726 364.38 96.726 367.76C96.726 374.78 94.6894 380.067 90.616 383.62C86.6294 387.173 81.516 388.95 75.276 388.95C73.716 388.95 71.636 388.863 69.036 388.69C64.2694 413.737 61.886 427.733 61.886 430.68C61.886 439.087 63.186 445.37 65.786 449.53C60.586 453.43 55.1694 455.38 49.536 455.38C43.9027 455.38 39.8727 453.777 37.446 450.57C35.0194 447.277 33.806 442.423 33.806 436.01C33.806 429.51 36.3194 412.263 41.346 384.27C31.5527 385.57 23.3194 387.043 16.646 388.69C15.9527 386.523 15.606 383.707 15.606 380.24Z" fill="#8CFEEA"/>
<path d="M140.37 353.46C140.37 356.753 138.637 359.613 135.17 362.04C131.704 364.38 127.76 365.55 123.34 365.55C118.92 365.55 115.41 364.683 112.81 362.95C110.297 361.217 109.04 358.877 109.04 355.93C109.04 351.943 110.904 348.823 114.63 346.57C118.357 344.317 122.3 343.19 126.46 343.19C130.62 343.19 133.957 344.057 136.47 345.79C139.07 347.523 140.37 350.08 140.37 353.46ZM115.02 455.25C109.647 455.25 105.747 453.907 103.32 451.22C100.894 448.533 99.6805 444.46 99.6805 439C99.6805 433.453 102.454 418.677 108 394.67L100.72 383.75C111.554 377.25 120.09 374 126.33 374C129.884 374 132.397 374.78 133.87 376.34C135.344 377.813 136.08 380.24 136.08 383.62C136.08 384.92 134.477 392.547 131.27 406.5C128.064 420.453 126.46 430.42 126.46 436.4C126.46 442.38 127.804 446.54 130.49 448.88C125.637 453.127 120.48 455.25 115.02 455.25Z" fill="#8CFEEA"/>
<path d="M163.211 477.87C157.838 477.87 154.068 476.527 151.901 473.84C149.821 471.24 148.781 467.427 148.781 462.4C148.781 457.46 149.821 447.45 151.901 432.37C154.068 417.29 156.148 404.42 158.141 393.76L150.861 383.36C156.234 380.24 160.871 377.9 164.771 376.34C168.671 374.693 172.528 373.87 176.341 373.87C182.581 373.87 185.701 377.987 185.701 386.22C185.701 387.347 185.528 389.643 185.181 393.11L186.481 393.76C188.994 387.52 192.634 382.667 197.401 379.2C202.168 375.647 207.758 373.87 214.171 373.87C220.671 373.87 225.828 376.817 229.641 382.71C233.454 388.517 235.361 395.753 235.361 404.42C235.361 416.033 231.288 426.607 223.141 436.14C219.154 440.82 213.824 444.633 207.151 447.58C200.478 450.44 193.024 451.87 184.791 451.87C182.278 451.87 178.984 451.653 174.911 451.22C174.651 454.253 174.521 457.07 174.521 459.67C174.521 465.217 175.864 469.16 178.551 471.5C173.698 475.747 168.584 477.87 163.211 477.87ZM180.241 424.05L177.251 439.13C187.738 438.87 196.101 435.447 202.341 428.86C208.668 422.187 211.831 414.907 211.831 407.02C211.831 402.947 211.008 399.697 209.361 397.27C207.801 394.757 205.504 393.5 202.471 393.5C191.724 393.5 184.314 403.683 180.241 424.05Z" fill="#8CFEEA"/>
<path d="M262.742 477.87C257.369 477.87 253.599 476.527 251.432 473.84C249.352 471.24 248.312 467.427 248.312 462.4C248.312 457.46 249.352 447.45 251.432 432.37C253.599 417.29 255.679 404.42 257.672 393.76L250.392 383.36C255.765 380.24 260.402 377.9 264.302 376.34C268.202 374.693 272.059 373.87 275.872 373.87C282.112 373.87 285.232 377.987 285.232 386.22C285.232 387.347 285.059 389.643 284.712 393.11L286.012 393.76C288.525 387.52 292.165 382.667 296.932 379.2C301.699 375.647 307.289 373.87 313.702 373.87C320.202 373.87 325.359 376.817 329.172 382.71C332.985 388.517 334.892 395.753 334.892 404.42C334.892 416.033 330.819 426.607 322.672 436.14C318.685 440.82 313.355 444.633 306.682 447.58C300.009 450.44 292.555 451.87 284.322 451.87C281.809 451.87 278.515 451.653 274.442 451.22C274.182 454.253 274.052 457.07 274.052 459.67C274.052 465.217 275.395 469.16 278.082 471.5C273.229 475.747 268.115 477.87 262.742 477.87ZM279.772 424.05L276.782 439.13C287.269 438.87 295.632 435.447 301.872 428.86C308.199 422.187 311.362 414.907 311.362 407.02C311.362 402.947 310.539 399.697 308.892 397.27C307.332 394.757 305.035 393.5 302.002 393.5C291.255 393.5 283.845 403.683 279.772 424.05Z" fill="#8CFEEA"/>
<path d="M383.853 449.4C379.78 450.873 375.707 451.61 371.633 451.61C367.56 451.61 364.137 450.397 361.363 447.97C358.59 445.543 356.987 442.25 356.553 438.09C356.12 433.93 355.73 427.907 355.383 420.02C355.037 412.047 354.69 406.413 354.343 403.12C353.217 392.113 349.75 384.27 343.943 379.59C348.017 375.863 353.13 374 359.283 374C362.663 374 365.61 374.91 368.123 376.73C370.637 378.463 372.63 380.803 374.103 383.75C375.663 386.61 376.92 390.337 377.873 394.93C379.347 402.557 380.083 412.87 380.083 425.87C380.083 429.077 379.953 432.847 379.693 437.18H387.233C396.16 413.087 400.623 396.663 400.623 387.91C400.623 384.963 399.973 382.19 398.673 379.59C404.74 375.863 410.027 374 414.533 374C422.94 374 427.143 378.853 427.143 388.56C427.143 396.273 423.59 409.837 416.483 429.25C415.183 432.803 414.447 434.883 414.273 435.49C403.267 466.863 387.623 482.55 367.343 482.55C361.19 482.55 356.12 481.207 352.133 478.52C348.147 475.92 346.153 472.453 346.153 468.12C346.153 463.873 347.757 459.41 350.963 454.73C355.123 460.623 360.323 463.57 366.563 463.57C370.117 463.57 373.41 462.4 376.443 460.06C379.563 457.72 382.033 454.167 383.853 449.4Z" fill="#8CFEEA"/>
<path d="M15.606 380.24C15.606 373.22 17.426 367.933 21.066 364.38C24.706 360.827 29.0394 359.05 34.066 359.05C39.1794 359.05 46.1127 359.917 54.866 361.65C63.6194 363.383 70.206 364.293 74.626 364.38C81.9927 362.993 89.0127 361.303 95.686 359.31C96.3794 361.563 96.726 364.38 96.726 367.76C96.726 374.78 94.6894 380.067 90.616 383.62C86.6294 387.173 81.516 388.95 75.276 388.95C73.716 388.95 71.636 388.863 69.036 388.69C64.2694 413.737 61.886 427.733 61.886 430.68C61.886 439.087 63.186 445.37 65.786 449.53C60.586 453.43 55.1694 455.38 49.536 455.38C43.9027 455.38 39.8727 453.777 37.446 450.57C35.0194 447.277 33.806 442.423 33.806 436.01C33.806 429.51 36.3194 412.263 41.346 384.27C31.5527 385.57 23.3194 387.043 16.646 388.69C15.9527 386.523 15.606 383.707 15.606 380.24Z" stroke="#000000" stroke-width="30" mask="url(#path-9-outside-1_30:7)"/>
<path d="M140.37 353.46C140.37 356.753 138.637 359.613 135.17 362.04C131.704 364.38 127.76 365.55 123.34 365.55C118.92 365.55 115.41 364.683 112.81 362.95C110.297 361.217 109.04 358.877 109.04 355.93C109.04 351.943 110.904 348.823 114.63 346.57C118.357 344.317 122.3 343.19 126.46 343.19C130.62 343.19 133.957 344.057 136.47 345.79C139.07 347.523 140.37 350.08 140.37 353.46ZM115.02 455.25C109.647 455.25 105.747 453.907 103.32 451.22C100.894 448.533 99.6805 444.46 99.6805 439C99.6805 433.453 102.454 418.677 108 394.67L100.72 383.75C111.554 377.25 120.09 374 126.33 374C129.884 374 132.397 374.78 133.87 376.34C135.344 377.813 136.08 380.24 136.08 383.62C136.08 384.92 134.477 392.547 131.27 406.5C128.064 420.453 126.46 430.42 126.46 436.4C126.46 442.38 127.804 446.54 130.49 448.88C125.637 453.127 120.48 455.25 115.02 455.25Z" stroke="#000000" stroke-width="30" mask="url(#path-9-outside-1_30:7)"/>
<path d="M163.211 477.87C157.838 477.87 154.068 476.527 151.901 473.84C149.821 471.24 148.781 467.427 148.781 462.4C148.781 457.46 149.821 447.45 151.901 432.37C154.068 417.29 156.148 404.42 158.141 393.76L150.861 383.36C156.234 380.24 160.871 377.9 164.771 376.34C168.671 374.693 172.528 373.87 176.341 373.87C182.581 373.87 185.701 377.987 185.701 386.22C185.701 387.347 185.528 389.643 185.181 393.11L186.481 393.76C188.994 387.52 192.634 382.667 197.401 379.2C202.168 375.647 207.758 373.87 214.171 373.87C220.671 373.87 225.828 376.817 229.641 382.71C233.454 388.517 235.361 395.753 235.361 404.42C235.361 416.033 231.288 426.607 223.141 436.14C219.154 440.82 213.824 444.633 207.151 447.58C200.478 450.44 193.024 451.87 184.791 451.87C182.278 451.87 178.984 451.653 174.911 451.22C174.651 454.253 174.521 457.07 174.521 459.67C174.521 465.217 175.864 469.16 178.551 471.5C173.698 475.747 168.584 477.87 163.211 477.87ZM180.241 424.05L177.251 439.13C187.738 438.87 196.101 435.447 202.341 428.86C208.668 422.187 211.831 414.907 211.831 407.02C211.831 402.947 211.008 399.697 209.361 397.27C207.801 394.757 205.504 393.5 202.471 393.5C191.724 393.5 184.314 403.683 180.241 424.05Z" stroke="#000000" stroke-width="30" mask="url(#path-9-outside-1_30:7)"/>
<path d="M262.742 477.87C257.369 477.87 253.599 476.527 251.432 473.84C249.352 471.24 248.312 467.427 248.312 462.4C248.312 457.46 249.352 447.45 251.432 432.37C253.599 417.29 255.679 404.42 257.672 393.76L250.392 383.36C255.765 380.24 260.402 377.9 264.302 376.34C268.202 374.693 272.059 373.87 275.872 373.87C282.112 373.87 285.232 377.987 285.232 386.22C285.232 387.347 285.059 389.643 284.712 393.11L286.012 393.76C288.525 387.52 292.165 382.667 296.932 379.2C301.699 375.647 307.289 373.87 313.702 373.87C320.202 373.87 325.359 376.817 329.172 382.71C332.985 388.517 334.892 395.753 334.892 404.42C334.892 416.033 330.819 426.607 322.672 436.14C318.685 440.82 313.355 444.633 306.682 447.58C300.009 450.44 292.555 451.87 284.322 451.87C281.809 451.87 278.515 451.653 274.442 451.22C274.182 454.253 274.052 457.07 274.052 459.67C274.052 465.217 275.395 469.16 278.082 471.5C273.229 475.747 268.115 477.87 262.742 477.87ZM279.772 424.05L276.782 439.13C287.269 438.87 295.632 435.447 301.872 428.86C308.199 422.187 311.362 414.907 311.362 407.02C311.362 402.947 310.539 399.697 308.892 397.27C307.332 394.757 305.035 393.5 302.002 393.5C291.255 393.5 283.845 403.683 279.772 424.05Z" stroke="#000000" stroke-width="30" mask="url(#path-9-outside-1_30:7)"/>
<path d="M383.853 449.4C379.78 450.873 375.707 451.61 371.633 451.61C367.56 451.61 364.137 450.397 361.363 447.97C358.59 445.543 356.987 442.25 356.553 438.09C356.12 433.93 355.73 427.907 355.383 420.02C355.037 412.047 354.69 406.413 354.343 403.12C353.217 392.113 349.75 384.27 343.943 379.59C348.017 375.863 353.13 374 359.283 374C362.663 374 365.61 374.91 368.123 376.73C370.637 378.463 372.63 380.803 374.103 383.75C375.663 386.61 376.92 390.337 377.873 394.93C379.347 402.557 380.083 412.87 380.083 425.87C380.083 429.077 379.953 432.847 379.693 437.18H387.233C396.16 413.087 400.623 396.663 400.623 387.91C400.623 384.963 399.973 382.19 398.673 379.59C404.74 375.863 410.027 374 414.533 374C422.94 374 427.143 378.853 427.143 388.56C427.143 396.273 423.59 409.837 416.483 429.25C415.183 432.803 414.447 434.883 414.273 435.49C403.267 466.863 387.623 482.55 367.343 482.55C361.19 482.55 356.12 481.207 352.133 478.52C348.147 475.92 346.153 472.453 346.153 468.12C346.153 463.873 347.757 459.41 350.963 454.73C355.123 460.623 360.323 463.57 366.563 463.57C370.117 463.57 373.41 462.4 376.443 460.06C379.563 457.72 382.033 454.167 383.853 449.4Z" stroke="#000000" stroke-width="30" mask="url(#path-9-outside-1_30:7)"/>
<defs>
<filter id="filter0_i_30:7" x="56" y="0" width="339" height="269" filterUnits="userSpaceOnUse" color-interpolation-filters="sRGB">
<feFlood flood-opacity="0" result="BackgroundImageFix"/>
<feBlend mode="normal" in="SourceGraphic" in2="BackgroundImageFix" result="shape"/>
<feColorMatrix in="SourceAlpha" type="matrix" values="0 0 0 0 0 0 0 0 0 0 0 0 0 0 0 0 0 0 127 0" result="hardAlpha"/>
<feMorphology radius="8" operator="erode" in="SourceAlpha" result="effect1_innerShadow_30:7"/>
<feOffset dx="6" dy="4"/>
<feGaussianBlur stdDeviation="2"/>
<feComposite in2="hardAlpha" operator="arithmetic" k2="-1" k3="1"/>
<feColorMatrix type="matrix" values="0 0 0 0 0 0 0 0 0 0 0 0 0 0 0 0 0 0 0.7 0"/>
<feBlend mode="normal" in2="shape" result="effect1_innerShadow_30:7"/>
</filter>
<linearGradient id="paint0_linear_30:7" x1="222.5" y1="0" x2="222.5" y2="265" gradientUnits="userSpaceOnUse">
<stop stop-color="white"/>
<stop offset="1" stop-color="#80FFE8"/>
</linearGradient>
</defs>
</svg>
