
<svg id="Layer_2" height="512" viewBox="0 0 128 128" width="512" xmlns="http://www.w3.org/2000/svg" data-name="Layer 2"><path d="m94.643 118.956a1.747 1.747 0 0 1 -1.376-.668l-8.367-10.632h-20.9a1.75 1.75 0 0 1 0-3.5h21.75a1.75 1.75 0 0 1 1.375.668l8.892 11.3a1.75 1.75 0 0 1 -1.375 2.832z" fill="#06daf7"/><path d="m85.75 93.656h-21.75a1.75 1.75 0 0 1 0-3.5h21.75a1.75 1.75 0 0 1 0 3.5z" fill="#06daf7"/><path d="m96.749 79.656h-32.749a1.75 1.75 0 0 1 0-3.5h32.749a1.75 1.75 0 0 1 0 3.5z" fill="#06daf7"/><path d="m77.744 65.656h-13.744a1.75 1.75 0 0 1 0-3.5h13.744a1.75 1.75 0 0 1 0 3.5z" fill="#06daf7"/><path d="m117.395 75.426a1.744 1.744 0 0 1 -1.237-.513l-23.258-23.257h-28.9a1.75 1.75 0 0 1 0-3.5h29.625a1.75 1.75 0 0 1 1.237.513l23.77 23.77a1.75 1.75 0 0 1 -1.237 2.987z" fill="#06daf7"/><path d="m115.875 37.323h-51.875a1.75 1.75 0 0 1 0-3.5h51.875a1.75 1.75 0 0 1 0 3.5z" fill="#06daf7"/><path d="m93.625 25.99h-29.625a1.75 1.75 0 0 1 0-3.5h28.9l8.009-8.009a1.75 1.75 0 0 1 2.475 2.475l-8.521 8.521a1.75 1.75 0 0 1 -1.238.513z" fill="#06daf7"/><path d="m45.812 1.656a18.188 18.188 0 0 0 -18.187 18.188v.042a15.479 15.479 0 0 0 -13.104 22.282 27.1 27.1 0 0 0 -.821 45.474 15.494 15.494 0 0 0 13.925 20.284v.042a18.188 18.188 0 1 0 36.375 0v-88.124a18.188 18.188 0 0 0 -18.188-18.188z" fill="#ff6ca8"/><path d="m11.146 66.917a1.75 1.75 0 0 1 -1.75-1.75 19.477 19.477 0 0 1 19.455-19.455 1.75 1.75 0 0 1 0 3.5 15.973 15.973 0 0 0 -15.951 15.955 1.75 1.75 0 0 1 -1.754 1.75z" fill="#ef4a8a"/><path d="m54.219 21.978a1.75 1.75 0 0 1 -1.75-1.75 6.656 6.656 0 1 0 -13.312 0 1.75 1.75 0 0 1 -3.5 0 10.156 10.156 0 1 1 20.313 0 1.75 1.75 0 0 1 -1.751 1.75z" fill="#ef4a8a"/><path d="m36.627 62.031a1.75 1.75 0 0 1 0-3.5 8.618 8.618 0 0 0 8.609-8.609v-5.657a8.618 8.618 0 0 0 -8.609-8.609h-.75a1.75 1.75 0 0 1 0-3.5h.75a12.123 12.123 0 0 1 12.109 12.109v5.657a12.123 12.123 0 0 1 -12.109 12.109z" fill="#ef4a8a"/><path d="m47 79.656h-10a13.641 13.641 0 0 1 -13.625-13.625 1.75 1.75 0 0 1 3.5 0 10.136 10.136 0 0 0 10.125 10.125h10a1.75 1.75 0 0 1 0 3.5z" fill="#ef4a8a"/><path d="m53.375 103.906a16.018 16.018 0 0 1 -16-16 1.75 1.75 0 0 1 3.5 0 12.514 12.514 0 0 0 12.5 12.5 1.75 1.75 0 0 1 0 3.5z" fill="#ef4a8a"/><path d="m28.288 100.244a1.829 1.829 0 0 1 -.261-.019 8.862 8.862 0 0 1 -7.443-10.064 1.75 1.75 0 1 1 3.461.519 5.357 5.357 0 0 0 4.5 6.083 1.75 1.75 0 0 1 -.257 3.481z" fill="#ef4a8a"/><path d="m46.25 118.744a11.012 11.012 0 0 1 -11-11 1.75 1.75 0 0 1 3.5 0 7.508 7.508 0 0 0 7.5 7.5 1.75 1.75 0 1 1 0 3.5z" fill="#ef4a8a"/><g fill="#284cb2"><circle cx="90.937" cy="91.906" r="5.188"/><circle cx="98" cy="121.156" r="5.187"/><circle cx="101.937" cy="77.906" r="5.187"/><circle cx="121.062" cy="77.344" r="5.188"/><circle cx="115.875" cy="52.094" r="5.187"/><circle cx="115.875" cy="99.644" r="5.187"/><circle cx="121.062" cy="35.573" r="5.188"/><circle cx="105.562" cy="11.822" r="5.188"/><circle cx="82.931" cy="63.74" r="5.187"/></g></svg>