
<!-- Generator: Adobe Illustrator 19.0.0, SVG Export Plug-In . SVG Version: 6.00 Build 0)  -->
<svg version="1.1" id="Capa_1" xmlns="http://www.w3.org/2000/svg" xmlns:xlink="http://www.w3.org/1999/xlink" x="0px" y="0px"
	 viewBox="0 0 512 512" style="enable-background:new 0 0 512 512;" xml:space="preserve">
<path style="fill:#FACF57;" d="M330.24,152.32l-192-56C133.199,94.853,128,98.756,128,104v152c0,4.418,3.582,8,8,8h192
	c4.418,0,8-3.582,8-8v-96C336,156.444,333.653,153.315,330.24,152.32z"/>
<g>
	<path style="fill:#F2821C;" d="M232,216c-4.418,0-8,3.582-8,8v32c0,4.418,3.582,8,8,8s8-3.582,8-8v-32
		C240,219.582,236.418,216,232,216z"/>
	<path style="fill:#F2821C;" d="M280,216c-4.418,0-8,3.582-8,8v32c0,4.418,3.582,8,8,8s8-3.582,8-8v-32
		C288,219.582,284.418,216,280,216z"/>
	<path style="fill:#F2821C;" d="M184,216c-4.418,0-8,3.582-8,8v32c0,4.418,3.582,8,8,8s8-3.582,8-8v-32
		C192,219.582,188.418,216,184,216z"/>
</g>
<path style="opacity:0.5;fill:#F59F3F;enable-background:new    ;" d="M152,256V104c0-1.238,0.298-2.396,0.807-3.432L138.24,96.32
	C133.199,94.853,128,98.756,128,104v152c0,4.418,3.582,8,8,8h24C155.581,264,152,260.418,152,256z"/>
<rect x="152" y="248" style="fill:#E1E0E4;" width="184" height="54"/>
<rect x="128" y="248" style="fill:#D2D1D6;" width="24" height="54"/>
<path style="fill:#F082A6;" d="M336,296H128v64c0,8.837,7.163,16,16,16h48v128c0,4.418,3.582,8,8,8h64c4.418,0,8-3.582,8-8V376h48
	c8.837,0,16-7.163,16-16V296z"/>
<path style="fill:#E6608D;" d="M200,352h-32c-8.837,0-16-7.163-16-16v-40h-24v64c0,8.837,7.163,16,16,16h48v128c0,4.418,3.582,8,8,8
	h16V368C216,359.163,208.836,352,200,352z"/>
<path style="fill:#D2D1D6;" d="M432,104c0-4.418-3.582-8-8-8h-32c-4.418,0-8,3.582-8,8v40h48V104z"/>
<path style="fill:#C3C1C9;" d="M400,104c0-4.418,3.582-8,8-8h-16c-4.418,0-8,3.582-8,8v40h16V104z"/>
<path style="fill:#AD7DC9;" d="M432,136h-48v368c0,4.418,3.582,8,8,8h32c4.418,0,8-3.582,8-8V136z"/>
<path style="fill:#8A6CBD;" d="M400,504V136h-16v368c0,4.418,3.582,8,8,8h16C403.582,512,400,508.418,400,504z"/>
<path style="fill:#FACF57;" d="M487.957,31.168c-0.232-2.214-1.376-4.232-3.157-5.568C455.101,3.326,423.934,0,408,0
	c-37.121,0-64.051,16.039-76.8,25.6c-3.669,2.751-4.243,8.213-1.221,11.668l56,64c1.519,1.736,3.714,2.732,6.021,2.732h32
	c2.307,0,4.501-0.996,6.021-2.732l56-64C487.486,35.593,488.188,33.382,487.957,31.168z"/>
<path style="opacity:0.5;fill:#F59F3F;enable-background:new    ;" d="M442.827,83h-38.945c-2.807,0-5.479-1.212-7.327-3.325
	l-53.953-61.661c-4.558,2.692-8.382,5.321-11.402,7.585c-3.668,2.751-4.243,8.213-1.221,11.668l56,64
	c1.519,1.736,3.714,2.732,6.021,2.732h32c2.307,0,4.501-0.996,6.021-2.732l16.702-19.088C445.507,82.711,444.184,83,442.827,83z"/>
<polygon style="fill:#D2D1D6;" points="88,120 40,120 41.387,188 86.612,188 "/>
<path style="fill:#C3C1C9;" d="M63.84,504.163L57.387,188h-16l6.452,316.163c0.089,4.354,3.644,7.837,7.998,7.837h16
	C67.484,512,63.929,508.517,63.84,504.163z"/>
<path style="fill:#AD7DC9;" d="M41.333,184l6.507,320.163c0.088,4.354,3.643,7.837,7.998,7.837H72.16
	c4.355,0,7.91-3.483,7.998-7.837L86.667,184H41.333z"/>
<path style="fill:#8A6CBD;" d="M63.84,504.163L57.306,184H41.333l6.507,320.163c0.089,4.354,3.643,7.837,7.998,7.837h15.999
	C67.484,512,63.929,508.517,63.84,504.163z"/>
<path style="fill:#FACF57;" d="M24,104c0-16.041,21.089-67.836,32.641-95.006c2.761-6.493,11.957-6.493,14.717,0
	C82.911,36.164,104,87.959,104,104c0,22.091-17.909,40-40,40S24,126.091,24,104z"/>
<path style="opacity:0.5;fill:#F59F3F;enable-background:new    ;" d="M80,136c-22.091,0-40-17.909-40-40
	c0-14.933,18.274-60.846,30.119-89.037c-3.62-4.363-11.045-3.69-13.478,2.031C45.089,36.164,24,87.959,24,104
	c0,22.091,17.909,40,40,40c9.663,0,18.526-3.427,25.439-9.131C86.411,135.602,83.253,136,80,136z"/>
<g>
</g>
<g>
</g>
<g>
</g>
<g>
</g>
<g>
</g>
<g>
</g>
<g>
</g>
<g>
</g>
<g>
</g>
<g>
</g>
<g>
</g>
<g>
</g>
<g>
</g>
<g>
</g>
<g>
</g>
</svg>
