
<svg height="512" viewBox="0 0 58 58" width="512" xmlns="http://www.w3.org/2000/svg"><g id="Page-1" fill="none" fill-rule="evenodd"><g id="006---AR-Phone-Projection" fill-rule="nonzero"><path id="Shape" d="m0 52v4c0 1.1045695.8954305 2 2 2h54c1.1045695 0 2-.8954305 2-2v-4z" fill="#2980ba"/><path id="Shape" d="m58 52c-.0156833.5464237-.2479091 1.0642082-.6455379 1.4393298-.3976289.3751215-.9280519.576817-1.4744621.5606702h-53.76c-.74550274.03994-1.45086328-.3399139-1.82782456-.9843281-.37696128-.6444143-.36236472-1.4454195.03782456-2.0756719l7.31-11.06c.80784003-1.1866212 2.15454371-1.8918588 3.59-1.88h4.77l5 7h16l5-7h4.77c1.4354563-.0118588 2.78216.6933788 3.59 1.88 7.91 11.97 7.64 11.32 7.64 12.12z" fill="#b0d3f0"/><path id="Shape" d="m58 52c-.0156833.5464237-.2479091 1.0642082-.6455379 1.4393298-.3976289.3751215-.9280519.576817-1.4744621.5606702h-38.72c2.1313156-3.4453418 4.8489481-6.4912562 8.03-9h11.81l5-7h4.77c1.4354563-.0118588 2.78216.6933788 3.59 1.88 7.91 11.97 7.64 11.32 7.64 12.12z" fill="#90bae1"/><path id="Shape" d="m37 46h-16c-.3375769-.0000448-.6523455-.1704034-.837-.453l-17-26c-.20186707-.2990627-.22697345-.6836811-.06569701-1.0064483.16127645-.3227673.48392299-.5336247.84428378-.5517602.3603608-.0181354.70254667.1592638.89541323.4642085l16.704 25.547h14.918l16.7-25.547c.1928666-.3049447.5350524-.4823439.8954132-.4642085.3603608.0181355.6830074.2289929.8442838.5517602.1612765.3227672.1361701.7073856-.065697 1.0064483l-17 26c-.1838767.2814124-.4968428.4516089-.833.453z" fill="#f9eab0"/><path id="Shape" d="m42 7.3v13.4c.0005001.183227-.0992598.3520514-.26.44l-11.74 6.32-.76.41c-.15.08-.33.08-.48 0l-.76-.41-11.74-6.32c-.1607402-.0879486-.2605001-.256773-.26-.44v-13.4c-.0005001-.18322697.0992598-.35205141.26-.44l.79-.43 11.71-6.3c.15-.08.33-.08.48 0l11.71 6.3.79.43c.1607402.08794859.2605001.25677303.26.44z" fill="#ff5364"/><g fill="#df4d60"><path id="Shape" d="m32.526 10.969-3.526 1.896-3.526-1.9c-.4865629-.261783-1.093217-.0795629-1.355.407s-.0795629 1.093217.407 1.355l3.474 1.873v2.4c0 .5522847.4477153 1 1 1s1-.4477153 1-1v-2.4l3.474-1.867c.4865629-.261783.668783-.8684371.407-1.355s-.8684371-.668783-1.355-.407z"/><path id="Shape" d="m20.88 9.62c-.1233335.23471018-.3355774.4102096-.5892769.4872591-.2536994.0770494-.5276943.0492225-.7607231-.0772591l-3.53-1.9v-.83c-.0005001-.18322697.0992598-.35205141.26-.44l.79-.43 3.42 1.84c.4849278.26046201.66818.86385342.41 1.35z"/><path id="Shape" d="m42 7.3v.84l-3.53 1.89c-.479574.2152795-1.0439523.0224977-1.2916033-.44118916-.2476509-.46368685-.0940145-1.0399538.3516033-1.31881084l3.42-1.84.79.43c.1607402.08794859.2605001.25677303.26.44z"/><path id="Shape" d="m30 23v4.46l-.76.41c-.15.08-.33.08-.48 0l-.76-.41v-4.46c0-.5522847.4477153-1 1-1s1 .4477153 1 1z"/></g><path id="Shape" d="m58 52c-.0156833.5464237-.2479091 1.0642082-.6455379 1.4393298-.3976289.3751215-.9280519.576817-1.4744621.5606702h-3.88l-1.89-4.31h-.11l-2.92-.49c-.7312013-.121245-1.3353929-.6369245-1.57-1.34l-1.07-3.21c-.320186-.9460665.1066687-1.9833234 1-2.43l1.06-.53h.11l-1.61-3.69h1.77c1.4354563-.0118588 2.78216.6933788 3.59 1.88 7.91 11.97 7.64 11.32 7.64 12.12z" fill="#3b97d3"/><path id="Shape" d="m14 37.9998528-7 16.0001472h-4.88c-.74550274.03994-1.45086328-.3399139-1.82782456-.9843281-.37696128-.6444143-.36236472-1.4454195.03782456-2.0756719l7.31-11.06c.80784003-1.1866212 2.15454371-1.8918588 3.59-1.88z" fill="#3b97d3"/></g></g></svg>