
<!-- Generator: Adobe Illustrator 19.0.0, SVG Export Plug-In . SVG Version: 6.00 Build 0)  -->
<svg version="1.1" id="Capa_1" xmlns="http://www.w3.org/2000/svg" xmlns:xlink="http://www.w3.org/1999/xlink" x="0px" y="0px"
	 viewBox="0 0 512 512" style="enable-background:new 0 0 512 512;" xml:space="preserve">
<polygon style="fill:#AEADB3;" points="302.42,409 302.42,512 209.58,512 209.58,409 239.58,409 239.58,412.5 272.42,412.5 
	272.42,409 "/>
<polygon style="fill:#8B8992;" points="272.42,409 302.42,409 302.42,512 256,512 256,412.5 272.42,412.5 "/>
<rect x="74" style="fill:#0088FF;" width="364" height="424"/>
<rect x="256" style="fill:#005ED3;" width="182" height="424"/>
<g>
	<path style="fill:#FFFFFF;" d="M356.47,290l-31.65-84.37h-61.68v-26.05h48.22v-30h-48.22v-23.44h-30v15.05
		c-50.92,7.31-90.19,51.22-90.19,104.14c0,58.02,47.2,105.22,105.22,105.22c2.63,0,5.24-0.1,7.83-0.3
		c30.14-2.26,57.63-17.5,75.67-40.94l4.01,10.69h38.89v-30H356.47z M256,320.14c-2.58,0.27-5.2,0.41-7.83,0.41
		c-41.48,0-75.22-33.75-75.22-75.22c0-36.33,25.89-66.73,60.19-73.71v64.01h70.89l14.05,37.46
		C307.74,299.12,283.59,317.23,256,320.14z"/>
	<path style="fill:#FFFFFF;" d="M274.47,85.67c0,11.78-7.78,21.78-18.47,25.14c-2.48,0.77-5.12,1.19-7.86,1.19
		c-14.52,0-26.33-11.81-26.33-26.33s11.81-26.34,26.33-26.34c2.74,0,5.38,0.42,7.86,1.2C266.69,63.88,274.47,73.89,274.47,85.67z"/>
</g>
<g>
	<path style="fill:#D9D9DB;" d="M256,110.81V60.53c10.69,3.35,18.47,13.36,18.47,25.14S266.69,107.45,256,110.81z"/>
	<path style="fill:#D9D9DB;" d="M374.57,290v30h-38.89l-4.01-10.69c-18.04,23.44-45.53,38.68-75.67,40.94v-30.11
		c27.59-2.91,51.74-21.02,62.08-47.05l-14.05-37.46H256V126.14h7.14v23.44h48.22v30h-48.22v26.05h61.68L356.47,290H374.57z"/>
</g>
<g>
</g>
<g>
</g>
<g>
</g>
<g>
</g>
<g>
</g>
<g>
</g>
<g>
</g>
<g>
</g>
<g>
</g>
<g>
</g>
<g>
</g>
<g>
</g>
<g>
</g>
<g>
</g>
<g>
</g>
</svg>
