<?xml version="1.0" encoding="UTF-8" standalone="no"?>
<!DOCTYPE svg PUBLIC "-//W3C//DTD SVG 1.1//EN" "http://www.w3.org/Graphics/SVG/1.1/DTD/svg11.dtd">
<svg width="100%" height="100%" viewBox="0 0 225 200" version="1.1" xmlns="http://www.w3.org/2000/svg" xmlns:xlink="http://www.w3.org/1999/xlink" xml:space="preserve" style="fill-rule:evenodd;clip-rule:evenodd;stroke-linecap:round;stroke-linejoin:round;stroke-miterlimit:1.5;">
    <g id="Artboard" transform="matrix(1,0,0,1,1.5,8)">
        <g id="Rectangle-3" transform="matrix(0.879012,0.879012,-0.879012,0.879012,151.249,-84.6668)">
            <path d="M130.778,139.815C130.778,137.534 128.926,135.682 126.645,135.682L94.911,135.682C92.63,135.682 90.778,137.534 90.778,139.815L90.778,171.549C90.778,173.83 92.63,175.682 94.911,175.682L126.645,175.682C128.926,175.682 130.778,173.83 130.778,171.549L130.778,139.815Z" style="fill:rgb(161,255,238);"/>
            <path d="M89.208,133.832L89.353,133.697L89.5,133.566L89.652,133.438L89.806,133.314L89.963,133.193L90.123,133.077L90.286,132.963L90.453,132.854L90.622,132.748L90.793,132.647L90.968,132.549L91.145,132.456L91.325,132.366L91.507,132.281L91.692,132.2L91.867,132.128L91.973,132.087L92.069,132.052L92.164,132.017L92.26,131.984L92.357,131.952L92.454,131.921L92.552,131.891L92.65,131.863L92.749,131.836L92.848,131.809L92.948,131.784L93.048,131.761L93.148,131.738L93.249,131.717L93.35,131.697L93.452,131.678L93.555,131.66L93.657,131.644L93.76,131.629L93.863,131.615L93.967,131.602L94.071,131.591L94.175,131.581L94.279,131.572L94.384,131.565L94.49,131.559L94.595,131.555L94.7,131.551L94.806,131.549L126.751,131.549L126.856,131.551L126.962,131.554L127.067,131.559L127.172,131.565L127.276,131.572L127.381,131.581L127.485,131.591L127.589,131.602L127.693,131.615L127.796,131.629L127.899,131.644L128.002,131.66L128.104,131.678L128.205,131.696L128.307,131.717L128.408,131.738L128.508,131.761L128.609,131.784L128.708,131.809L128.807,131.835L128.906,131.863L129.004,131.891L129.102,131.921L129.199,131.952L129.296,131.984L129.488,132.052L129.582,132.087L129.689,132.128L129.864,132.2L130.049,132.281L130.231,132.366L130.411,132.456L130.588,132.549L130.763,132.647L130.934,132.748L131.103,132.854L131.27,132.963L131.433,133.076L131.593,133.193L131.75,133.314L131.905,133.438L132.056,133.566L132.204,133.697L132.348,133.832L132.49,133.97L132.628,134.112L132.763,134.256L132.894,134.404L133.022,134.555L133.146,134.71L133.266,134.867L133.383,135.027L133.497,135.19L133.606,135.356L133.711,135.525L133.813,135.697L133.911,135.872L134.004,136.049L134.094,136.229L134.179,136.411L134.26,136.596L134.331,136.771L134.373,136.877L134.408,136.972L134.476,137.164L134.508,137.261L134.539,137.358L134.597,137.554L134.624,137.653L134.676,137.851L134.699,137.952L134.722,138.052L134.743,138.153L134.763,138.255L134.782,138.356L134.8,138.458L134.816,138.56L134.831,138.664L134.845,138.767L134.858,138.871L134.869,138.974L134.879,139.078L134.895,139.288L134.901,139.393L134.905,139.498L134.909,139.604L134.911,139.709L134.911,171.654L134.909,171.76L134.905,171.866L134.901,171.971L134.895,172.076L134.887,172.18L134.879,172.285L134.869,172.389L134.858,172.493L134.845,172.597L134.831,172.7L134.816,172.802L134.8,172.905L134.782,173.008L134.763,173.109L134.743,173.211L134.722,173.312L134.699,173.412L134.676,173.512L134.651,173.612L134.624,173.711L134.597,173.81L134.568,173.908L134.539,174.006L134.508,174.103L134.476,174.199L134.442,174.296L134.408,174.392L134.373,174.486L134.331,174.592L134.26,174.768L134.179,174.953L134.094,175.135L134.004,175.315L133.911,175.492L133.813,175.666L133.711,175.838L133.606,176.007L133.497,176.173L133.383,176.337L133.266,176.497L133.146,176.654L133.022,176.808L132.894,176.959L132.763,177.107L132.628,177.252L132.49,177.393L132.348,177.532L132.204,177.666L132.056,177.798L131.905,177.925L131.75,178.049L131.593,178.17L131.433,178.287L131.27,178.4L131.103,178.51L130.934,178.615L130.763,178.717L130.588,178.814L130.411,178.908L130.231,178.997L130.049,179.082L129.864,179.163L129.689,179.235L129.582,179.276L129.488,179.312L129.392,179.346L129.296,179.379L129.199,179.411L129.102,179.442L129.005,179.472L128.906,179.501L128.807,179.528L128.708,179.554L128.609,179.579L128.508,179.603L128.408,179.626L128.307,179.647L128.205,179.667L128.104,179.686L128.002,179.703L127.899,179.72L127.796,179.735L127.693,179.749L127.589,179.761L127.485,179.772L127.381,179.782L127.276,179.791L127.172,179.798L127.067,179.804L126.962,179.809L126.856,179.812L126.751,179.814L126.658,179.815L94.898,179.815L94.806,179.814L94.7,179.812L94.595,179.809L94.489,179.804L94.384,179.798L94.28,179.791L94.175,179.782L94.071,179.772L93.967,179.761L93.863,179.749L93.76,179.735L93.657,179.72L93.555,179.703L93.453,179.686L93.351,179.667L93.249,179.647L93.148,179.626L93.048,179.603L92.947,179.579L92.848,179.554L92.749,179.528L92.65,179.501L92.552,179.472L92.454,179.442L92.357,179.411L92.261,179.379L92.164,179.346L92.069,179.312L91.974,179.276L91.867,179.235L91.692,179.163L91.507,179.082L91.325,178.997L91.145,178.908L90.968,178.814L90.794,178.717L90.622,178.615L90.453,178.51L90.287,178.4L90.123,178.287L89.963,178.17L89.806,178.05L89.652,177.925L89.5,177.798L89.353,177.666L89.208,177.531L89.066,177.393L88.928,177.252L88.794,177.107L88.662,176.959L88.535,176.808L88.41,176.654L88.29,176.497L88.173,176.337L88.06,176.173L87.95,176.007L87.845,175.838L87.743,175.666L87.646,175.492L87.552,175.315L87.463,175.135L87.377,174.953L87.297,174.768L87.225,174.593L87.184,174.486L87.148,174.391L87.114,174.296L87.081,174.2L87.048,174.103L87.018,174.006L86.988,173.908L86.959,173.81L86.932,173.711L86.906,173.612L86.881,173.512L86.857,173.412L86.834,173.312L86.813,173.21L86.793,173.109L86.774,173.008L86.756,172.905L86.74,172.803L86.725,172.7L86.711,172.596L86.699,172.493L86.687,172.389L86.677,172.285L86.669,172.18L86.662,172.076L86.656,171.971L86.651,171.865L86.647,171.76L86.645,171.654L86.645,171.562L86.645,139.802L86.645,139.709L86.647,139.604L86.651,139.498L86.655,139.393L86.662,139.288L86.669,139.183L86.677,139.079L86.687,138.974L86.699,138.87L86.711,138.767L86.725,138.664L86.74,138.561L86.756,138.458L86.774,138.356L86.793,138.254L86.813,138.153L86.834,138.052L86.857,137.951L86.881,137.851L86.906,137.752L86.932,137.652L86.959,137.554L86.988,137.456L87.018,137.358L87.049,137.261L87.081,137.164L87.114,137.068L87.148,136.973L87.184,136.877L87.225,136.771L87.297,136.596L87.377,136.411L87.463,136.229L87.552,136.049L87.645,135.872L87.743,135.697L87.845,135.525L87.95,135.356L88.06,135.19L88.173,135.027L88.29,134.867L88.41,134.709L88.535,134.555L88.662,134.404L88.794,134.256L88.928,134.111L89.066,133.97L89.208,133.832ZM94.912,139.816L94.911,139.816L94.911,171.535L94.912,171.547L94.913,171.548L94.924,171.549L126.632,171.549L126.643,171.548L126.644,171.548L126.645,171.547L126.645,171.535L126.645,139.828L126.645,139.816L126.644,139.816L126.644,139.815L126.643,139.815L126.632,139.815L94.925,139.815L94.913,139.815L94.912,139.816Z" style="fill:rgb(37,59,89);"/>
        </g>
        <g transform="matrix(1,0,0,0.918239,1.77867,-1.21841)">
            <path d="M210,24.9C210,16.125 203.458,9 195.4,9L24.6,9C16.542,9 10,16.125 10,24.9L10,152.1C10,160.875 16.542,168 24.6,168L195.4,168C203.458,168 210,160.875 210,152.1L210,24.9Z" style="fill:url(#_Linear1);stroke:rgb(36,58,89);stroke-width:10.42px;"/>
        </g>
        <g transform="matrix(1,0.00454993,0,0.974268,-1.5,-4.63901)">
            <path d="M26,17.261L26,156.339C21.59,155.399 18.279,151.478 18.279,146.789L18.279,26.811C18.279,22.123 21.59,18.201 26,17.261Z" style="fill:white;fill-opacity:0.9;"/>
        </g>
        <g id="Oval" transform="matrix(1.11111,0,0,1.12246,-11.3022,-10.4827)">
            <ellipse cx="76.322" cy="78.87" rx="9" ry="8.909" style="fill:rgb(36,58,89);"/>
        </g>
        <g id="Oval1" transform="matrix(1.11111,0,0,1.12246,-11.5315,-10.4827)">
            <ellipse cx="145.234" cy="78.87" rx="9" ry="8.909" style="fill:rgb(36,58,89);"/>
        </g>
        <g id="Path-2" transform="matrix(1.12101,0,0,1.15181,-11.5146,-11.5364)">
            <path d="M134.746,98.997L135.031,99.027L135.313,99.075L135.591,99.141L135.865,99.225L136.132,99.326L136.392,99.443L136.643,99.577L136.885,99.726L137.117,99.891L137.336,100.07L137.544,100.263L137.737,100.468L137.917,100.685L138.082,100.914L138.231,101.152L138.363,101.399L138.479,101.654L138.577,101.916L138.658,102.184L138.72,102.456L138.764,102.732L138.79,103.009L138.796,103.288L138.784,103.567L138.753,103.844L138.704,104.119L138.636,104.39L138.55,104.656L138.447,104.916L138.326,105.169L138.189,105.414L138.035,105.649L137.866,105.874L137.682,106.088L137.484,106.29L137.273,106.479L137.05,106.653L136.728,106.889L136.394,107.13L136.061,107.367L135.728,107.601L135.395,107.831L135.063,108.057L134.731,108.28L134.399,108.499L134.067,108.715L133.736,108.928L133.405,109.137L133.075,109.342L132.745,109.544L132.415,109.743L132.086,109.938L131.757,110.13L131.428,110.319L131.1,110.504L130.772,110.686L130.444,110.864L130.117,111.04L129.79,111.212L129.464,111.38L129.138,111.546L128.813,111.708L128.488,111.867L128.163,112.023L127.839,112.175L127.516,112.325L127.193,112.471L126.87,112.614L126.548,112.754L126.226,112.891L125.905,113.025L125.585,113.156L125.265,113.283L124.945,113.408L124.626,113.53L124.308,113.648L123.99,113.764L123.673,113.877L123.356,113.986L123.04,114.093L122.725,114.197L122.411,114.298L122.096,114.396L121.783,114.492L121.47,114.584L121.158,114.674L120.847,114.761L120.536,114.845L120.226,114.926L119.917,115.005L119.609,115.08L119.301,115.154L118.994,115.224L118.688,115.292L118.382,115.357L118.078,115.419L117.774,115.479L117.471,115.537L117.169,115.591L116.867,115.643L116.567,115.693L116.267,115.74L115.969,115.785L115.671,115.827L115.374,115.867L115.078,115.904L114.783,115.939L114.489,115.972L114.195,116.002L113.903,116.03L113.612,116.056L113.322,116.079L113.032,116.1L112.744,116.119L112.457,116.135L112.171,116.15L111.885,116.162L111.601,116.172L111.318,116.18L111.036,116.186L110.755,116.19L110.475,116.191L110.197,116.191L109.919,116.189L109.643,116.184L109.367,116.178L109.093,116.17L108.82,116.16L108.548,116.148L108.277,116.134L108.008,116.118L107.739,116.1L107.472,116.081L107.206,116.06L106.941,116.037L106.678,116.012L106.416,115.986L106.155,115.958L105.895,115.929L105.636,115.897L105.379,115.864L105.123,115.83L104.868,115.794L104.615,115.757L104.362,115.718L104.112,115.677L103.862,115.635L103.614,115.592L103.367,115.547L103.121,115.501L102.877,115.454L102.634,115.405L102.393,115.355L102.153,115.303L101.914,115.251L101.676,115.197L101.44,115.142L101.206,115.086L100.972,115.028L100.74,114.97L100.51,114.91L100.281,114.849L100.053,114.787L99.827,114.725L99.602,114.661L99.379,114.596L99.157,114.53L98.936,114.463L98.717,114.396L98.499,114.327L98.283,114.258L98.068,114.188L97.855,114.117L97.643,114.045L97.433,113.972L97.224,113.899L97.017,113.825L96.811,113.75L96.607,113.674L96.404,113.598L96.202,113.522L96.002,113.444L95.804,113.366L95.607,113.288L95.412,113.209L95.218,113.129L95.025,113.049L94.835,112.969L94.645,112.888L94.458,112.806L94.271,112.724L94.087,112.642L93.904,112.56L93.722,112.477L93.542,112.394L93.364,112.31L93.187,112.227L93.012,112.143L92.838,112.059L92.666,111.974L92.495,111.89L92.326,111.805L92.159,111.72L91.993,111.636L91.829,111.551L91.667,111.466L91.506,111.381L91.346,111.296L91.188,111.21L91.032,111.125L90.874,111.038L90.574,110.871L90.276,110.702L89.985,110.533L89.7,110.365L89.422,110.199L89.151,110.033L88.887,109.869L88.629,109.706L88.378,109.545L88.133,109.386L87.896,109.229L87.665,109.074L87.441,108.922L87.224,108.772L87.014,108.625L86.811,108.481L86.615,108.339L86.426,108.201L86.244,108.067L86.069,107.936L85.902,107.809L85.741,107.685L85.588,107.566L85.442,107.451L85.303,107.341L85.171,107.235L85.047,107.134L84.93,107.038L84.816,106.943L84.624,106.781L84.458,106.637L84.322,106.518L84.213,106.42L84.135,106.348L83.933,106.15L83.745,105.94L83.571,105.718L83.412,105.486L83.27,105.244L83.144,104.993L83.035,104.735L82.944,104.471L82.871,104.201L82.816,103.928L82.779,103.651L82.762,103.373L82.763,103.094L82.782,102.815L82.821,102.539L82.877,102.266L82.952,101.997L83.046,101.733L83.156,101.475L83.284,101.226L83.428,100.985L83.588,100.753L83.763,100.533L83.953,100.323L84.156,100.127L84.372,99.944L84.6,99.775L84.839,99.62L85.087,99.482L85.345,99.359L85.61,99.253L85.881,99.165L86.159,99.093L86.44,99.04L86.724,99.004L87.01,98.987L87.297,98.988L87.582,99.007L87.866,99.044L88.147,99.1L88.424,99.173L88.695,99.263L88.959,99.371L89.216,99.495L89.464,99.635L89.701,99.791L89.928,99.962L90.143,100.146L90.185,100.185L90.227,100.222L90.299,100.286L90.4,100.373L90.532,100.485L90.602,100.543L90.683,100.609L90.77,100.68L90.864,100.756L90.965,100.836L91.072,100.92L91.185,101.008L91.305,101.1L91.431,101.196L91.563,101.295L91.702,101.397L91.847,101.503L91.998,101.612L92.155,101.723L92.318,101.838L92.487,101.954L92.662,102.074L92.843,102.195L93.029,102.318L93.221,102.443L93.419,102.57L93.623,102.699L93.832,102.829L94.047,102.96L94.267,103.092L94.493,103.225L94.724,103.359L94.96,103.493L95.206,103.63L95.324,103.695L95.448,103.763L95.574,103.83L95.7,103.898L95.828,103.965L95.957,104.033L96.088,104.1L96.219,104.168L96.352,104.235L96.486,104.302L96.621,104.369L96.758,104.436L96.896,104.503L97.035,104.569L97.175,104.636L97.316,104.702L97.459,104.768L97.602,104.833L97.747,104.898L97.893,104.963L98.041,105.028L98.189,105.092L98.489,105.22L98.641,105.283L98.794,105.346L98.948,105.408L99.103,105.47L99.26,105.532L99.417,105.592L99.575,105.653L99.735,105.713L99.895,105.772L100.057,105.831L100.22,105.889L100.384,105.946L100.549,106.003L100.715,106.06L100.882,106.115L101.05,106.17L101.219,106.225L101.389,106.278L101.56,106.331L101.732,106.383L101.905,106.434L102.079,106.485L102.255,106.535L102.431,106.583L102.608,106.632L102.786,106.679L102.965,106.725L103.145,106.771L103.326,106.815L103.508,106.859L103.691,106.901L103.875,106.943L104.06,106.984L104.246,107.024L104.432,107.062L104.62,107.1L104.809,107.137L104.998,107.172L105.189,107.207L105.38,107.24L105.572,107.272L105.765,107.304L105.96,107.334L106.154,107.362L106.35,107.39L106.547,107.417L106.745,107.442L106.943,107.466L107.143,107.489L107.343,107.51L107.545,107.53L107.747,107.549L107.95,107.567L108.154,107.583L108.358,107.598L108.564,107.611L108.77,107.623L108.978,107.634L109.186,107.643L109.395,107.651L109.605,107.657L109.816,107.662L110.028,107.665L110.24,107.667L110.454,107.667L110.668,107.666L110.883,107.663L111.099,107.659L111.316,107.653L111.534,107.645L111.752,107.635L111.972,107.624L112.192,107.612L112.413,107.597L112.635,107.581L112.858,107.563L113.082,107.544L113.306,107.522L113.532,107.499L113.758,107.474L113.985,107.447L114.213,107.418L114.442,107.387L114.672,107.355L114.903,107.32L115.134,107.284L115.367,107.245L115.6,107.205L115.834,107.163L116.069,107.118L116.305,107.072L116.542,107.023L116.779,106.972L117.018,106.92L117.257,106.865L117.498,106.808L117.739,106.748L117.981,106.687L118.224,106.623L118.467,106.557L118.712,106.489L118.958,106.418L119.204,106.345L119.452,106.27L119.7,106.193L119.949,106.113L120.199,106.03L120.45,105.946L120.701,105.858L120.954,105.768L121.208,105.676L121.462,105.581L121.717,105.484L121.974,105.384L122.231,105.281L122.489,105.176L122.748,105.068L123.007,104.958L123.268,104.844L123.529,104.728L123.792,104.61L124.055,104.488L124.319,104.364L124.584,104.236L124.85,104.106L125.117,103.973L125.385,103.837L125.653,103.699L125.922,103.557L126.193,103.412L126.464,103.264L126.736,103.113L127.009,102.96L127.282,102.803L127.557,102.643L127.832,102.479L128.108,102.313L128.385,102.143L128.663,101.97L128.942,101.794L129.221,101.615L129.502,101.432L129.783,101.246L130.065,101.057L130.348,100.865L130.631,100.668L130.916,100.469L131.201,100.266L131.487,100.06L131.785,99.841L132.02,99.681L132.264,99.536L132.518,99.407L132.781,99.294L133.05,99.198L133.325,99.12L133.604,99.059L133.888,99.017L134.173,98.992L134.46,98.985L134.746,98.997Z" style="fill:rgb(37,59,89);"/>
        </g>
    </g>
    <defs>
        <linearGradient id="_Linear1" x1="0" y1="0" x2="1" y2="0" gradientUnits="userSpaceOnUse" gradientTransform="matrix(184.861,147.565,-135.5,201.321,18.8607,14.7175)"><stop offset="0%" style="stop-color:rgb(180,118,255);stop-opacity:1"/><stop offset="22%" style="stop-color:rgb(255,182,156);stop-opacity:1"/><stop offset="22%" style="stop-color:rgb(255,218,144);stop-opacity:1"/><stop offset="53%" style="stop-color:white;stop-opacity:1"/><stop offset="53%" style="stop-color:rgb(115,255,213);stop-opacity:1"/><stop offset="81%" style="stop-color:rgb(161,238,255);stop-opacity:1"/><stop offset="100%" style="stop-color:rgb(228,255,250);stop-opacity:1"/></linearGradient>
    </defs>
</svg>
